HIERARCHY
ROOT Hips
{
	OFFSET 0.000000 0.000000 0.000000 
	CHANNELS 6 Xposition Yposition Zposition Zrotation Yrotation Xrotation
	JOINT LeftUpLeg
	{
		OFFSET 1.363060 -1.794630 0.839290 
		CHANNELS 3 Zrotation Yrotation Xrotation
		JOINT LeftLeg
		{
			OFFSET 2.448110 -6.726130 0.000000 
			CHANNELS 3 Zrotation Yrotation Xrotation
			JOINT LeftFoot
			{
				OFFSET 2.562200 -7.039590 0.000000 
				CHANNELS 3 Zrotation Yrotation Xrotation
				JOINT LeftToeBase
				{
					OFFSET 0.157640 -0.433110 2.322550 
					CHANNELS 3 Zrotation Yrotation Xrotation
					End Site
					{
						OFFSET 0.000000 0.000000 0.000000 
					}
				}
			}
		}
	}
	JOINT RightUpLeg
	{
		OFFSET -1.305520 -1.794630 0.839290 
		CHANNELS 3 Zrotation Yrotation Xrotation
		JOINT RightLeg
		{
			OFFSET -2.542530 -6.985550 0.000000 
			CHANNELS 3 Zrotation Yrotation Xrotation
			JOINT RightFoot
			{
				OFFSET -2.568260 -7.056230 0.000000 
				CHANNELS 3 Zrotation Yrotation Xrotation
				JOINT RightToeBase
				{
					OFFSET -0.164730 -0.452590 2.363150 
					CHANNELS 3 Zrotation Yrotation Xrotation
					End Site
					{
						OFFSET 0.000000 0.000000 0.000000 
					}
				}
			}
		}
	}
	JOINT Spine
	{
		OFFSET 0.028270 2.035590 -0.193380 
		CHANNELS 3 Zrotation Yrotation Xrotation
		JOINT Spine1
		{
			OFFSET 0.056720 2.048850 -0.042750 
			CHANNELS 3 Zrotation Yrotation Xrotation
			JOINT Neck1
			{
				OFFSET -0.054170 1.746240 0.172020 
				CHANNELS 3 Zrotation Yrotation Xrotation
				JOINT Head
				{
					OFFSET 0.104070 1.761360 -0.123970 
					CHANNELS 3 Zrotation Yrotation Xrotation
					End Site
					{
						OFFSET 0.000000 0.000000 0.000000 
					}
				}
			}
			JOINT LeftArm
			{
				OFFSET 3.362410 1.200890 -0.311210 
				CHANNELS 3 Zrotation Yrotation Xrotation
				JOINT LeftForeArm
				{
					OFFSET 4.983000 -0.000000 -0.000000 
					CHANNELS 3 Zrotation Yrotation Xrotation
					JOINT LeftHand
					{
						OFFSET 3.483560 -0.000000 -0.000000 
						CHANNELS 3 Zrotation Yrotation Xrotation
						JOINT LeftHandIndex1
						{
							OFFSET 0.715260 -0.000000 -0.000000 
							CHANNELS 3 Zrotation Yrotation Xrotation
							End Site
							{
								OFFSET 0.000000 0.000000 0.000000 
							}
						}
					}
				}
			}
			JOINT RightArm
			{
				OFFSET -3.136600 1.374050 -0.404650 
				CHANNELS 3 Zrotation Yrotation Xrotation
				JOINT RightForeArm
				{
					OFFSET -5.241900 -0.000000 -0.000000 
					CHANNELS 3 Zrotation Yrotation Xrotation
					JOINT RightHand
					{
						OFFSET -3.444170 -0.000000 -0.000000 
						CHANNELS 3 Zrotation Yrotation Xrotation
						JOINT RightHandIndex1
						{
							OFFSET -0.622530 -0.000000 -0.000000 
							CHANNELS 3 Zrotation Yrotation Xrotation
							End Site
							{
								OFFSET 0.000000 0.000000 0.000000 
							}
						}
					}
				}
			}
		}
	}
}
MOTION
Frames: 13
Frame Time: 0.041667
9.123045 17.683089 2.335198 -178.432295 1.156579 174.157101 -28.868878 -17.398396 9.127209 -0.981822 6.862576 20.773578 -3.897618 19.475651 -17.062139 0.153900 -2.527600 -6.966200 37.395286 13.907289 10.395679 -0.428675 -7.410491 20.502875 3.088720 -22.930811 -27.043472 -1.115300 6.709100 -18.856500 2.146127 2.329726 2.240757 -8.406645 1.002725 0.892261 6.405264 11.405936 3.773510 -3.543300 5.322000 0.086900 -97.696940 0.298893 26.228904 13.343613 -15.611735 -2.675362 -2.104834 -3.018239 3.204125 -7.125000 0.000000 0.000000 105.623038 -5.992997 27.586420 -14.252260 21.498599 -4.117582 0.685732 2.424892 -17.719894 7.125000 0.000000 0.000000 
9.117704 17.684112 2.333834 -177.978219 1.213916 174.285770 -28.353168 -17.501015 8.833322 -0.927199 6.981559 21.115481 -3.882966 19.425968 -17.151338 0.162100 -2.593700 -7.149700 37.821912 13.850768 10.414967 -0.370882 -7.299172 20.129584 3.124674 -22.972817 -26.863882 -1.103500 6.674700 -18.755100 2.190243 2.349689 2.220186 -8.556352 1.010528 0.926796 6.450492 11.390247 3.793232 -3.517100 5.316700 0.083800 -97.661863 0.332291 26.392990 13.338750 -15.616907 -2.681717 -2.073847 -3.048793 3.117990 -7.125000 0.000000 0.000000 105.643736 -6.025540 27.548297 -14.257014 21.520150 -4.123608 0.688973 2.419568 -17.710883 7.125000 0.000000 0.000000 
9.117477 17.682634 2.334061 -177.923116 1.208570 174.297526 -28.251176 -17.417731 8.776420 -0.925211 6.974667 21.096946 -3.892962 19.410354 -16.994869 0.173100 -2.680300 -7.390000 37.891056 13.822285 10.336675 -0.377748 -7.327375 20.156837 3.450622 -23.827286 -26.147932 -1.471600 7.665800 -21.703500 2.199115 2.347411 2.218201 -8.542287 1.007263 0.937464 6.450501 11.365213 3.825700 -3.522100 5.309600 0.102200 -97.642611 0.329209 26.487117 13.340568 -15.624049 -2.684672 -2.064631 -3.068033 3.024166 -7.125000 0.000000 0.000000 105.625570 -6.046134 27.634951 -14.275935 21.555116 -4.137334 0.687989 2.424179 -17.764475 7.125000 0.000000 0.000000 
9.117136 17.685134 2.334743 -178.047021 1.192311 174.225931 -28.423360 -17.417958 8.852277 -0.926790 6.976579 21.099486 -3.883644 19.400485 -17.036053 0.167200 -2.634400 -7.262400 37.764592 13.659215 10.373321 -0.395019 -7.334431 20.164467 3.863672 -24.835655 -25.041652 -2.007400 8.881400 -25.425200 2.178305 2.342976 2.224191 -8.524018 1.007672 0.914457 6.486610 11.331633 3.833594 -3.497700 5.295300 0.092300 -97.612273 0.301765 26.386666 13.335104 -15.606510 -2.673725 -2.082185 -3.053163 3.132572 -7.125000 0.000000 0.000000 105.654104 -6.054103 27.704572 -14.284766 21.569156 -4.142608 0.701795 2.416990 -17.797914 7.125000 0.000000 0.000000 
9.117704 17.685703 2.335993 -178.147212 1.173320 174.199057 -28.527722 -17.376885 8.895209 -0.938129 6.951135 21.021736 -3.891751 19.412822 -16.961561 0.168900 -2.647600 -7.299100 37.675046 13.642263 10.339763 -0.414827 -7.372541 20.261878 4.041239 -25.285421 -24.590692 -2.260300 9.388500 -27.018300 2.170501 2.331737 2.223331 -8.463994 1.000363 0.888854 6.516079 11.312561 3.852115 -3.479900 5.289900 0.097000 -97.606322 0.285001 26.335853 13.331206 -15.596544 -2.669675 -2.075471 -3.054977 3.180846 -7.125000 0.000000 0.000000 105.638596 -6.065441 27.794054 -14.293366 21.585200 -4.150751 0.705621 2.412427 -17.852595 7.125000 0.000000 0.000000 
9.119295 17.685930 2.338266 -178.297229 1.150737 174.165056 -28.682996 -17.332179 8.936988 -0.949902 6.929215 20.946805 -3.898991 19.427351 -16.890671 0.170700 -2.661600 -7.338100 37.548320 13.682692 10.342034 -0.431077 -7.398953 20.348945 4.107454 -25.473612 -24.476370 -2.349700 9.559300 -27.561000 2.161254 2.315339 2.221070 -8.372130 0.989269 0.845930 6.542970 11.300495 3.873761 -3.462900 5.288600 0.106000 -97.615599 0.263399 26.230341 13.327715 -15.583817 -2.663995 -2.071813 -3.051000 3.268760 -7.125000 0.000000 0.000000 105.603190 -6.072200 27.904494 -14.299146 21.596732 -4.158717 0.705686 2.407204 -17.926926 7.125000 0.000000 0.000000 
9.119863 17.686271 2.340994 -178.273923 1.171431 174.175044 -28.642798 -17.335675 8.893695 -0.944348 6.944000 20.984183 -3.899463 19.429987 -16.899348 0.170500 -2.659700 -7.332700 37.609102 13.788049 10.374498 -0.422356 -7.384097 20.311787 4.054704 -25.372064 -24.696795 -2.242600 9.354100 -26.909300 2.172845 2.310679 2.211211 -8.329612 0.981687 0.804641 6.560879 11.291969 3.901830 -3.449500 5.290100 0.119400 -97.635492 0.241605 26.095049 13.324559 -15.569762 -2.657288 -2.072146 -3.042945 3.383421 -7.125000 0.000000 0.000000 105.551962 -6.077459 28.016173 -14.301135 21.605732 -4.165997 0.701563 2.401705 -18.009207 7.125000 0.000000 0.000000 
9.120204 17.686044 2.343153 -178.213444 1.197005 174.198272 -28.561331 -17.355125 8.790742 -0.925417 6.993738 21.114150 -3.888989 19.406784 -16.949317 0.171000 -2.663800 -7.344200 37.702649 13.906444 10.461575 -0.396947 -7.326415 20.169115 3.895891 -25.008272 -25.195321 -1.979500 8.823300 -25.244000 2.187650 2.308782 2.199389 -8.306470 0.975601 0.770077 6.570691 11.283211 3.931994 -3.441000 5.291500 0.135900 -97.654219 0.221603 25.965847 13.322061 -15.557088 -2.650555 -2.077649 -3.032697 3.495345 -7.125000 0.000000 0.000000 105.496940 -6.077816 28.102281 -14.299112 21.609224 -4.170954 0.694530 2.396775 -18.069597 7.125000 0.000000 0.000000 
9.119068 17.686044 2.345312 -177.936158 1.268592 174.266793 -28.235454 -17.414562 8.616866 -0.891647 7.066949 21.330266 -3.869337 19.356706 -17.067801 0.166900 -2.631700 -7.254900 38.021892 14.044706 10.547866 -0.351715 -7.240826 19.918190 3.731595 -24.623560 -25.678647 -1.701500 8.214600 -23.367800 2.223222 2.325352 2.182264 -8.361430 0.977810 0.750410 6.573352 11.271379 3.963750 -3.434800 5.291200 0.152700 -97.666067 0.202534 25.869079 13.320762 -15.546219 -2.643741 -2.090717 -3.021644 3.581901 -7.125000 0.000000 0.000000 105.450638 -6.073192 28.143352 -14.293438 21.608429 -4.172574 0.687224 2.392002 -18.087367 7.125000 0.000000 0.000000 
9.117136 17.686384 2.346221 -177.639573 1.339013 174.330163 -27.899612 -17.486250 8.443148 -0.853236 7.149498 21.577228 -3.835894 19.272419 -17.230615 0.157800 -2.559200 -7.054000 38.346223 14.116357 10.651518 -0.304425 -7.140276 19.620664 3.652123 -24.431079 -25.898354 -1.543400 7.842200 -22.235800 2.256420 2.345861 2.168320 -8.441499 0.984431 0.746764 6.574695 11.257123 3.987301 -3.429000 5.288000 0.163700 -97.664493 0.188090 25.821686 13.320805 -15.540088 -2.638639 -2.107871 -3.011400 3.629487 -7.125000 0.000000 0.000000 105.423774 -6.059012 28.121826 -14.283324 21.598621 -4.169478 0.681855 2.386162 -18.046326 7.125000 0.000000 0.000000 
9.114863 17.688089 2.346335 -177.386767 1.398576 174.377627 -27.623265 -17.564256 8.285233 -0.813669 7.237342 21.836737 -3.789593 19.158105 -17.424009 0.145000 -2.453800 -6.761500 38.608067 14.094722 10.775949 -0.260222 -7.029203 19.294915 3.694133 -24.514671 -25.752840 -1.548000 7.853300 -22.269300 2.282981 2.363729 2.159121 -8.515069 0.992061 0.753558 6.579925 11.244041 3.998791 -3.420300 5.283400 0.166400 -97.656168 0.178476 25.818556 13.322410 -15.539607 -2.636306 -2.122743 -3.005003 3.636906 -7.125000 0.000000 0.000000 105.405739 -6.034468 28.062367 -14.270508 21.581303 -4.162322 0.679628 2.378907 -17.968616 7.125000 0.000000 0.000000 
9.112249 17.690248 2.346676 -177.137069 1.460642 174.421125 -27.352922 -17.641700 8.154077 -0.779089 7.310434 22.059664 -3.745864 19.050567 -17.609349 0.131800 -2.339800 -6.445700 38.861894 14.035300 10.871008 -0.223319 -6.934106 19.000431 3.836284 -24.835453 -25.319257 -1.687800 8.183100 -23.271500 2.310506 2.378982 2.151656 -8.579783 0.999074 0.760847 6.590314 11.232432 4.004568 -3.408000 5.278700 0.164600 -97.651118 0.173109 25.840093 13.325994 -15.544140 -2.636921 -2.130403 -3.004390 3.616140 -7.125000 0.000000 0.000000 105.382588 -6.006840 28.017916 -14.260089 21.565395 -4.154734 0.680322 2.371997 -17.903250 7.125000 0.000000 0.000000 
9.109863 17.691839 2.347358 -176.914426 1.516941 174.454276 -27.112484 -17.708613 8.042657 -0.748575 7.373384 22.253048 -3.710886 18.965523 -17.762114 0.122100 -2.252200 -6.203200 39.086100 13.965906 10.949342 -0.191605 -6.849664 18.734036 3.997617 -25.201814 -24.817573 -1.860700 8.569700 -24.458300 2.336479 2.388432 2.146154 -8.629617 1.003517 0.764796 6.606082 11.220906 4.007550 -3.392800 5.273600 0.161500 -97.650620 0.171055 25.874259 13.331804 -15.554255 -2.640949 -2.129871 -3.008205 3.580822 -7.125000 0.000000 0.000000 105.352823 -5.978679 28.007331 -14.255144 21.555672 -4.148952 0.683166 2.367343 -17.874267 7.125000 0.000000 0.000000 
